# xmcd
#
# Track frame offsets: 
#        150
#        17340
#        29838
#        42409
#        56371
#        72061
#        90100
#        101321
#        116709
#        132038
#        151864
#        168288
#        187124
#        201601
#        221485
#        234416
#        247114
#        269604
#
# Disc length: 3850 seconds
#
# Revision: 0
# Processed by: cddbd v1.5.1PL2 Copyright (c) Steve Scherf et al.
# Submitted via: ExactAudioCopy v0.95b3
#
DISCID=f60f0812
DTITLE=Al Green  - The Immortal Soul of Al Green - [CD3]
DYEAR=1900
DGENRE=
TTITLE0=Green, Al - Take Me To The River
TTITLE1=Green, Al - So Good To Be Here
TTITLE2=Green, Al - My God Is Real
TTITLE3=Green, Al - Sha-La-La (Make Me Happy)
TTITLE4=Green, Al - The City
TTITLE5=Green, Al - God Blessed Our Love
TTITLE6=Green, Al - One Nite Stand
TTITLE7=Green, Al - I'm Hooked On You
TTITLE8=Green, Al - Mimi
TTITLE9=Green, Al - Love Ritual
TTITLE10=Green, Al - Rhymes
TTITLE11=Green, Al - Could I Be The One?
TTITLE12=Green, Al - L-O-V-E (Love)
TTITLE13=Green, Al - Strong As Death (Sweet As Love)
TTITLE14=Green, Al - Oh Me, Oh My (Dreams In My Arms)
TTITLE15=Green, Al - I Gotta Be More (Take Me Higher)
TTITLE16=Green, Al - Eli's Game
TTITLE17=Green, Al - Love Ritual (Remix)
EXTD=
EXTT0=
EXTT1=
EXTT2=
EXTT3=
EXTT4=
EXTT5=
EXTT6=
EXTT7=
EXTT8=
EXTT9=
EXTT10=
EXTT11=
EXTT12=
EXTT13=
EXTT14=
EXTT15=
EXTT16=
EXTT17=
PLAYORDER=
